# xmcd
#
# Track frame offsets:
#	150
#	17205
#	30318
#	45837
#	62130
#	77941
#	94836
#	110720
#	120846
#	135070
#	153861
#	165799
#	181040
#	191552
#	205330
#	219507
#	234147
#	251114
#	263550
#	275586
#	292594
#	308940
#	329349
#	343879
#
# Disc length: 4798 seconds
#
# Revision: 0
# Processed by: cddbd v1.5.2PL0 Copyright (c) Steve Scherf et al.
# Submitted via: EasyCDDAExtractor 12.1.0.1
#
DISCID=3a12bc18
DTITLE=leonardo Favio - Grandes exitos
DYEAR=2010
DGENRE=Ballad
TTITLE0=Ella ya me olvido
TTITLE1=Fuiste mia en verano
TTITLE2=O quizas simplemente te regale una rosa
TTITLE3=Ding dong las cosas del amor
TTITLE4=Quiero aprender de memoria
TTITLE5=La dicha que me fue negada
TTITLE6=Ni el clavel ni la rosa
TTITLE7=Mi tristeza es mia y nada mas
TTITLE8=Mi amante niña mi compañera
TTITLE9=La planidera
TTITLE10=Elizabeth de mi amor
TTITLE11=La foto Carnet
TTITLE12=No juegues Mas
TTITLE13=Como me duele la piel
TTITLE14=Los recuerdos no abrazan
TTITLE15=Hablemos de amor
TTITLE16=Era como podria explicar
TTITLE17=La rubia
TTITLE18=Que tonto fui
TTITLE19=El amanecer espera
TTITLE20=Alguna vez una cancion
TTITLE21=Chiquillada
TTITLE22=Fue una noche de verano
TTITLE23=Mas que un loco
EXTD=
EXTT0=
EXTT1=
EXTT2=
EXTT3=
EXTT4=
EXTT5=
EXTT6=
EXTT7=
EXTT8=
EXTT9=
EXTT10=
EXTT11=
EXTT12=
EXTT13=
EXTT14=
EXTT15=
EXTT16=
EXTT17=
EXTT18=
EXTT19=
EXTT20=
EXTT21=
EXTT22=
EXTT23=
PLAYORDER=
